<svg width="328" height="85" viewBox="0 0 328 85" fill="none" xmlns="http://www.w3.org/2000/svg">
<path d="M103.223 46.2576C103.726 31.8647 82.5794 36.6835 82.8537 28.8302C82.9255 26.7741 85.3722 25.0919 88.4975 25.201C91.7051 25.313 93.9037 27.8452 95.5615 29.5297L102.246 23.0389C99.7392 19.0586 96.108 16.6093 89.1411 16.2039C79.6829 15.8736 74.044 21.3585 73.8028 28.2671C73.2714 43.4824 94.2983 40.659 94.134 45.3638C94.0634 47.3869 91.8513 49.423 88.8082 49.3167C84.9427 49.1817 82.1225 47.4261 79.8613 45.0186L73.4946 51.1892C75.053 52.6314 78.4027 57.2486 88.3544 57.5961C97.8126 57.9264 102.973 53.4129 103.223 46.2576Z" fill="#363CFD"/>
<path d="M113.321 17.7949L122.492 42.8874L131.67 17.7949H141.394L123.444 66.8637L112.985 68.6494L117.669 56.2666L103.598 17.7949H113.321Z" fill="#363CFD"/>
<path d="M179.976 33.1649V56.1718H170.719V35.4984C170.719 28.9644 167.919 26.1641 162.785 26.1641C156.173 26.1641 152.362 31.6091 152.362 31.6091V56.1718H143.027L143.027 19.2829L151.584 17.7957V22.6638C154.695 19.0856 159.674 17.2188 164.73 17.2188C173.597 17.2188 179.976 23.9861 179.976 33.1649Z" fill="#363CFD"/>
<path d="M212.277 36.8208C212.277 30.2868 207.454 26.1641 201.465 26.1641C195.631 26.1641 190.886 30.2868 190.886 36.8208C190.886 43.277 195.631 47.3997 201.465 47.3997C207.454 47.3997 212.277 43.277 212.277 36.8208ZM212.277 22.1193V17.7957H221.612V56.1719H213.055L212.355 51.3668C209.166 54.6338 204.888 56.345 200.454 56.345C190.03 56.345 181.785 48.1775 181.785 36.8208C181.785 25.3863 190.03 17.2188 200.454 17.2188C204.888 17.2188 209.088 18.93 212.277 22.1193Z" fill="#363CFD"/>
<path d="M253.691 36.8218C253.691 30.2878 248.869 26.1651 242.879 26.1651C237.045 26.1651 232.3 30.2878 232.3 36.8218C232.3 43.278 237.045 47.4007 242.879 47.4007C248.869 47.4007 253.691 43.278 253.691 36.8218ZM253.691 22.1202V17.7966H263.026V56.1728H254.469L253.769 51.3677C250.58 54.6347 246.302 56.346 241.868 56.346C231.445 56.346 223.199 48.1785 223.199 36.8218C223.199 25.3872 231.445 17.2197 241.868 17.2197C246.302 17.2197 250.502 18.931 253.691 22.1202Z" fill="#363CFD"/>
<path d="M287.119 17.7949V27.0514L285.133 26.8635C277.899 26.8635 274.709 31.9973 274.709 31.9973V56.111H265.375V19.2554L273.931 17.7949V23.9076C276.887 20.4073 282.14 17.7949 287.119 17.7949Z" fill="#363CFD"/>
<path d="M318.668 36.8208C318.668 30.2868 313.845 26.1641 307.856 26.1641C302.022 26.1641 297.277 30.2868 297.277 36.8208C297.277 43.277 302.022 47.3997 307.856 47.3997C313.845 47.3997 318.668 43.277 318.668 36.8208ZM318.668 22.1193V17.7957H328.002V56.1719H319.446L318.746 51.3668C315.556 54.6338 311.278 56.345 306.844 56.345C296.421 56.345 288.176 48.1775 288.176 36.8208C288.176 25.3863 296.421 17.2188 306.844 17.2188C311.278 17.2188 315.479 18.93 318.668 22.1193Z" fill="#363CFD"/>
<g filter="url(#filter0_d_774_1759)">
<path d="M8 42.4697L40.8296 9.64015C43.9446 6.52508 48.9952 6.52508 52.1102 9.64014L57.7506 15.2805L24.921 48.1101C21.8059 51.2251 16.7554 51.2251 13.6403 48.1101L8 42.4697Z" fill="#363CFD"/>
<path fill-rule="evenodd" clip-rule="evenodd" d="M29.928 48.9185L22.736 50.0296C22.0192 50.1683 21.3535 50.2617 20.7299 50.31C22.2645 50.0275 23.7322 49.2928 24.919 48.106L37.5766 35.4485L45.6723 34.2215C45.9395 34.1645 46.2027 34.1174 46.4621 34.0801C45.0609 34.4064 43.7308 35.1156 42.6386 36.2078L29.928 48.9185ZM8.09766 42.3453L8.1466 42.3171L8.10805 42.3557L8.09766 42.3453Z" fill="#E2B745"/>
<path d="M15.4534 74.679C18.5685 77.7941 23.619 77.7941 26.7341 74.679L59.5637 41.8494L53.923 36.2088C50.8079 33.0937 45.7574 33.0937 42.6423 36.2088L9.81277 69.0384L15.4534 74.679Z" fill="#363CFD"/>
</g>
<defs>
<filter id="filter0_d_774_1759" x="0.720988" y="0.0246992" width="66.1205" height="84.2699" filterUnits="userSpaceOnUse" color-interpolation-filters="sRGB">
<feFlood flood-opacity="0" result="BackgroundImageFix"/>
<feColorMatrix in="SourceAlpha" type="matrix" values="0 0 0 0 0 0 0 0 0 0 0 0 0 0 0 0 0 0 127 0" result="hardAlpha"/>
<feOffset/>
<feGaussianBlur stdDeviation="3.63951"/>
<feComposite in2="hardAlpha" operator="out"/>
<feColorMatrix type="matrix" values="0 0 0 0 0 0 0 0 0 0 0 0 0 0 0 0 0 0 0.24 0"/>
<feBlend mode="normal" in2="BackgroundImageFix" result="effect1_dropShadow_774_1759"/>
<feBlend mode="normal" in="SourceGraphic" in2="effect1_dropShadow_774_1759" result="shape"/>
</filter>
</defs>
</svg>
