<svg width="24" height="24" viewBox="0 0 24 24" fill="none" xmlns="http://www.w3.org/2000/svg">
<path d="M3.72614 11.8774L3.90124 12.0521L3.87331 12.08L4.43665 12.6433L5.89301 14.0997C6.57099 14.7777 7.505 15.0436 8.38381 14.8974L4.90423 18.377L4.34089 18.9403L4.90423 19.5037L6.36068 20.9601C7.47613 22.0756 9.28463 22.0756 10.4001 20.9601L18.8768 12.4834L19.4402 11.92L18.8768 11.3567L17.4204 9.90022C16.7424 9.22224 15.8084 8.95634 14.9296 9.10252L18.4092 5.62295L18.9725 5.0596L18.4092 4.49625L16.9528 3.0399C15.8374 1.92445 14.0289 1.92444 12.9134 3.0399L4.55047 11.4028L3.72614 11.8774Z" stroke="#E2B745" stroke-width="1.59339"/>
</svg>
