<svg width="24" height="24" viewBox="0 0 24 24" fill="none" xmlns="http://www.w3.org/2000/svg">
<path d="M3.3945 11.8337L3.61355 12.0522L3.58579 12.08L4.29289 12.7871L5.74925 14.2435C6.3319 14.8261 7.09109 15.1246 7.85464 15.139L4.76047 18.2332L4.05337 18.9403L4.76047 19.6474L6.21692 21.1039C7.41176 22.2987 9.349 22.2987 10.5438 21.1039L19.0206 12.6271L19.7277 11.92L19.0206 11.2129L17.5641 9.75646C16.9815 9.17381 16.2223 8.87528 15.4588 8.86087L18.5529 5.76671L19.26 5.0596L18.5529 4.3525L17.0966 2.89614C15.9017 1.70129 13.9645 1.70129 12.7696 2.89614L13.4767 3.60324L12.7696 2.89614L4.42573 11.24L3.3945 11.8337Z" stroke="white" stroke-width="2"/>
</svg>
