<svg width="1920" height="908" viewBox="0 0 1920 908" fill="none" xmlns="http://www.w3.org/2000/svg">
<mask id="mask0_1688_1702" style="mask-type:alpha" maskUnits="userSpaceOnUse" x="0" y="0" width="1920" height="908">
<rect width="1920" height="908" fill="black"/>
</mask>
<g mask="url(#mask0_1688_1702)">
<rect width="1920" height="908" fill="black"/>
<g filter="url(#filter0_f_1688_1702)">
<path d="M1397.15 263.936C1538.83 210.983 1593.32 62.0536 1650.98 192.15C1708.65 322.246 1429.97 670.18 1288.3 723.132C1146.62 776.085 1195.6 514.005 1137.94 383.908C1080.27 253.812 1255.48 316.888 1397.15 263.936Z" fill="url(#paint0_linear_1688_1702)"/>
<path d="M1397.36 264.393C1432.84 251.132 1462.85 231.866 1488.8 212.476C1501.45 203.025 1513.13 193.542 1524.02 184.711L1524.86 184.029C1535.99 175.001 1546.27 166.684 1555.89 159.796C1565.51 152.907 1574.45 147.467 1582.89 144.185C1591.33 140.904 1599.24 139.79 1606.82 141.512C1621.98 144.955 1636.1 159.812 1650.51 192.325C1664.85 224.66 1658.31 270.642 1638.08 322.365C1617.87 374.058 1584.04 431.365 1543.97 486.278C1503.9 541.189 1457.61 593.688 1412.48 635.764C1367.35 677.85 1323.42 709.472 1288.1 722.675C1270.44 729.274 1255.81 730.944 1243.61 728.615C1231.41 726.289 1221.58 719.963 1213.54 710.464C1197.4 691.426 1188.46 659.692 1182.12 622.106C1178.3 599.459 1175.44 574.752 1172.51 549.483C1170.58 532.823 1168.62 515.919 1166.34 499.2C1160.61 457.158 1152.85 416.326 1138.41 383.733C1124.01 351.25 1124.24 331.027 1134.6 318.032C1139.79 311.52 1147.57 306.767 1157.46 303.198C1167.35 299.629 1179.32 297.254 1192.88 295.478C1206.44 293.702 1221.56 292.528 1237.73 291.351C1239.59 291.216 1241.46 291.081 1243.35 290.945C1257.86 289.896 1273.15 288.792 1288.85 287.213C1324.31 283.645 1361.88 277.653 1397.36 264.393Z" stroke="black"/>
</g>
<g style="mix-blend-mode:overlay" opacity="0.25">
<rect x="1919.5" y="907.5" width="1919" height="907" transform="rotate(180 1919.5 907.5)" fill="#D9D9D9"/>
<rect x="1919.5" y="907.5" width="1919" height="907" transform="rotate(180 1919.5 907.5)" stroke="black"/>
</g>
</g>
<defs>
<filter id="filter0_f_1688_1702" x="846.66" y="-139.782" width="1092.07" height="1149.88" filterUnits="userSpaceOnUse" color-interpolation-filters="sRGB">
<feFlood flood-opacity="0" result="BackgroundImageFix"/>
<feBlend mode="normal" in="SourceGraphic" in2="BackgroundImageFix" result="shape"/>
<feGaussianBlur stdDeviation="140" result="effect1_foregroundBlur_1688_1702"/>
</filter>
<linearGradient id="paint0_linear_1688_1702" x1="1596.18" y1="295.1" x2="1659.16" y2="674.697" gradientUnits="userSpaceOnUse">
<stop stop-color="#262AB1"/>
<stop offset="1" stop-color="#081833"/>
</linearGradient>
</defs>
</svg>
