<svg width="24" height="24" viewBox="0 0 24 24" fill="none" xmlns="http://www.w3.org/2000/svg">
<path d="M12 3C16.968 3 21 7.032 21 12C21 16.968 16.968 21 12 21C7.032 21 3 16.968 3 12C3 7.032 7.032 3 12 3ZM12 19.2C15.984 19.2 19.2 15.984 19.2 12C19.2 8.016 15.984 4.8 12 4.8C8.016 4.8 4.8 8.016 4.8 12C4.8 15.984 8.016 19.2 12 19.2ZM12 17.4C9.012 17.4 6.6 14.988 6.6 12C6.6 9.012 9.012 6.6 12 6.6C14.988 6.6 17.4 9.012 17.4 12C17.4 14.988 14.988 17.4 12 17.4ZM12 10.2C11.01 10.2 10.2 11.01 10.2 12C10.2 12.99 11.01 13.8 12 13.8C12.99 13.8 13.8 12.99 13.8 12C13.8 11.01 12.99 10.2 12 10.2Z" fill="#E2B745"/>
</svg>
