<svg width="24" height="24" viewBox="0 0 24 24" fill="none" xmlns="http://www.w3.org/2000/svg">
<path fill-rule="evenodd" clip-rule="evenodd" d="M13.9411 1.76478C13.9411 1.43389 13.7274 1.13977 13.4126 1.03751C13.0978 0.935252 12.7531 1.0467 12.5578 1.31554L3.146 14.2568C2.97711 14.4889 2.95299 14.7968 3.08281 15.053C3.21379 15.3092 3.47688 15.4712 3.76411 15.4712H10.0589V22.9413C10.0589 23.2722 10.2714 23.5663 10.5874 23.6686C10.9022 23.7708 11.2469 23.6594 11.4422 23.3905L20.854 10.4492C21.0229 10.2172 21.047 9.90926 20.9172 9.65305C20.7862 9.39685 20.5231 9.23484 20.2347 9.23484H13.9412L13.9411 1.76478Z" fill="#E2B745"/>
</svg>
