<svg width="16" height="16" viewBox="0 0 16 16" fill="none" xmlns="http://www.w3.org/2000/svg">
<path d="M4 7.96875L9.09363 2.87512C9.57694 2.39181 10.3606 2.39181 10.8439 2.87512L11.719 3.75024L6.62535 8.84387C6.14204 9.32718 5.35843 9.32718 4.87512 8.84387L4 7.96875Z" fill="#363CFD"/>
<path fill-rule="evenodd" clip-rule="evenodd" d="M7.40236 8.96976L6.28665 9.14213C6.17529 9.16368 6.07187 9.17819 5.97501 9.18566C6.21325 9.14188 6.44112 9.02788 6.62535 8.84364L8.58917 6.87983L9.8453 6.68945C9.88613 6.68074 9.92637 6.67352 9.96602 6.66777C9.7493 6.71859 9.54363 6.82849 9.37466 6.99746L7.40236 8.96976ZM4.01546 7.94989L4.02295 7.94557L4.01705 7.95148L4.01546 7.94989Z" fill="#E2B745"/>
<path d="M5.15613 12.9663C5.63945 13.4496 6.42305 13.4496 6.90637 12.9663L12 7.87262L11.1248 6.99745C10.6415 6.51414 9.85791 6.51414 9.37459 6.99745L4.28096 12.0911L5.15613 12.9663Z" fill="#363CFD"/>
</svg>
