<svg width="24" height="24" viewBox="0 0 24 24" fill="none" xmlns="http://www.w3.org/2000/svg">
<path d="M10.78 6.21934C10.6394 6.07889 10.4488 6 10.25 6C10.0512 6 9.86063 6.07889 9.72 6.21934L4.72 11.2193C4.57955 11.36 4.50066 11.5506 4.50066 11.7493C4.50066 11.9481 4.57955 12.1387 4.72 12.2793L9.72 17.2793C9.78866 17.353 9.87146 17.4121 9.96346 17.4531C10.0555 17.4941 10.1548 17.5162 10.2555 17.5179C10.3562 17.5197 10.4562 17.5012 10.5496 17.4635C10.643 17.4257 10.7278 17.3696 10.799 17.2984C10.8703 17.2272 10.9264 17.1423 10.9641 17.0489C11.0018 16.9555 11.0204 16.8555 11.0186 16.7548C11.0168 16.6541 10.9948 16.5548 10.9538 16.4628C10.9128 16.3708 10.8537 16.288 10.78 16.2193L7.06 12.4993H17.25C17.4489 12.4993 17.6397 12.4203 17.7803 12.2797C17.921 12.139 18 11.9483 18 11.7493C18 11.5504 17.921 11.3597 17.7803 11.219C17.6397 11.0784 17.4489 10.9993 17.25 10.9993H7.06L10.78 7.27934C10.9205 7.13871 10.9993 6.94809 10.9993 6.74934C10.9993 6.55059 10.9205 6.35997 10.78 6.21934Z" fill="black"/>
</svg>
