<svg width="24" height="24" viewBox="0 0 24 24" fill="none" xmlns="http://www.w3.org/2000/svg">
<path d="M12.22 6.21934C12.3606 6.07889 12.5512 6 12.75 6C12.9488 6 13.1394 6.07889 13.28 6.21934L18.28 11.2193C18.4205 11.36 18.4993 11.5506 18.4993 11.7493C18.4993 11.9481 18.4205 12.1387 18.28 12.2793L13.28 17.2793C13.2113 17.353 13.1285 17.4121 13.0365 17.4531C12.9445 17.4941 12.8452 17.5162 12.7445 17.5179C12.6438 17.5197 12.5438 17.5012 12.4504 17.4635C12.357 17.4257 12.2722 17.3696 12.201 17.2984C12.1297 17.2272 12.0736 17.1423 12.0359 17.0489C11.9982 16.9555 11.9796 16.8555 11.9814 16.7548C11.9832 16.6541 12.0052 16.5548 12.0462 16.4628C12.0872 16.3708 12.1463 16.288 12.22 16.2193L15.94 12.4993H5.75C5.55109 12.4993 5.36032 12.4203 5.21967 12.2797C5.07902 12.139 5 11.9483 5 11.7493C5 11.5504 5.07902 11.3597 5.21967 11.219C5.36032 11.0784 5.55109 10.9993 5.75 10.9993H15.94L12.22 7.27934C12.0795 7.13871 12.0007 6.94809 12.0007 6.74934C12.0007 6.55059 12.0795 6.35997 12.22 6.21934Z" fill="black"/>
</svg>
