<svg width="24" height="24" viewBox="0 0 24 24" fill="none" xmlns="http://www.w3.org/2000/svg">
<path d="M16.964 15.964C18.4983 15.964 19.742 17.2077 19.742 18.742C19.742 20.2763 18.4983 21.52 16.964 21.52C15.4297 21.52 14.186 20.2763 14.186 18.742C14.186 17.2077 15.4297 15.964 16.964 15.964ZM7.70399 12.26C9.74965 12.26 11.408 13.9184 11.408 15.964C11.408 18.0096 9.74965 19.668 7.70399 19.668C5.65833 19.668 4 18.0096 4 15.964C4 13.9184 5.65833 12.26 7.70399 12.26ZM15.575 3C18.3878 3 20.668 5.28021 20.668 8.09299C20.668 10.9058 18.3878 13.186 15.575 13.186C12.7622 13.186 10.482 10.9058 10.482 8.09299C10.482 5.28021 12.7622 3 15.575 3Z" fill="#E2B745"/>
</svg>
